<svg xmlns:xlink="http://www.w3.org/1999/xlink" xmlns="http://www.w3.org/2000/svg" role="img" class="icon_icon__H9207 power-of-mega_megaEvoIcon__KNkQj" aria-hidden="true" width="56"  height="74" ><defs><symbol id="wtc-icon-mega-evolution" viewBox="0 0 56 74"><path d="M52.9522 37.3596C49.868 32.2849 44.7615 28.0645 40.1715 24.6101C35.3487 20.9716 32.8973 16.8322 32.8973 12.2951C32.8973 8.84068 34.1121 6.16703 34.1121 6.16703C35.3996 3.03672 35.967 2.34437 36.0616 1.29111C36.258 -0.749115 33.0501 0.120006 30.3077 0.606125C29.5003 0.746068 10.522 4.90017 3.03683 18.4747C-1.56045 26.805 -3.21169 39.1273 15.0029 50.5217C28.4528 58.933 27.1144 67.0423 27.078 67.4401C26.6997 71.8078 25.9723 72.537 26.787 73.5902C27.4999 74.5183 30.9697 73.5902 31.2388 73.5166C32.0026 73.303 49.9262 68.1693 54.6107 55.3092C56.9094 48.997 56.3565 42.95 52.945 37.3523L52.9522 37.3596ZM45.278 39.4072C27.0125 35.1353 12.857 28.5579 7.72867 25.98C8.06329 24.7648 8.5943 23.5053 9.32172 22.1868C9.67088 21.5608 10.0564 20.9568 10.471 20.375C14.4791 22.6877 23.1063 27.0996 34.8832 30.0458C35.196 30.3036 35.5233 30.554 35.8579 30.8118C40.0842 34.001 43.183 36.7851 45.278 39.3999V39.4072ZM27.3835 20.6548C22.2552 18.8061 18.1817 16.8395 15.4538 15.3812C18.8436 12.818 22.6989 11.0282 25.7905 9.86448C25.7104 10.5274 25.6522 11.2197 25.6377 11.9415C25.5795 14.4089 25.9578 17.4361 27.3835 20.6548ZM8.44882 33.8905C16.1376 37.4849 30.6932 43.4877 48.7114 47.1262C48.8496 48.9307 48.5441 50.7647 47.8312 52.7166C47.7512 52.9302 47.6712 53.1364 47.5766 53.3426C36.0689 51.0962 27.2598 48.0984 21.3823 45.6826C20.5821 45.1081 19.7311 44.5336 18.8291 43.9664C13.6062 40.6962 10.1219 37.3081 8.45609 33.8905H8.44882ZM31.2388 56.3404C34.6868 57.3715 38.5421 58.3806 42.7757 59.3013C40.0551 61.5477 36.8036 63.2933 34.0394 64.4939C33.712 62.2033 32.9264 59.3749 31.2461 56.3404H31.2388Z" fill="url(#paint0_linear_2327_5182)"></path><defs><linearGradient id="paint0_linear_2327_5182" x1="2.33851" y1="27.9761" x2="55.9762" y2="44.2827" gradientUnits="userSpaceOnUse"><stop stop-color="#E2923E"></stop><stop offset="0.34" stop-color="#B3CC53"></stop><stop offset="0.64" stop-color="#5CB9E7"></stop><stop offset="1" stop-color="#D24189"></stop></linearGradient></defs></symbol></defs><use xlink:href="#wtc-icon-mega-evolution"></use></svg>